<?xml version="1.0" standalone="no"?>
<!DOCTYPE svg PUBLIC "-//W3C//DTD SVG 20010904//EN"
 "http://www.w3.org/TR/2001/REC-SVG-20010904/DTD/svg10.dtd">
<svg version="1.0" xmlns="http://www.w3.org/2000/svg"
 width="438.000000pt" height="438.000000pt" viewBox="0 0 438.000000 438.000000"
 preserveAspectRatio="xMidYMid meet">
<metadata>
Created by potrace 1.11, written by Peter Selinger 2001-2013
</metadata>
<g transform="translate(0.000000,438.000000) scale(0.100000,-0.100000)"
fill="#000000" stroke="none">
<path d="M0 4209 c0 -133 3 -169 12 -163 10 6 10 5 1 -7 -18 -22 -18 -435 0
-442 9 -4 9 -6 0 -6 -10 -1 -13 -374 -13 -1796 l0 -1795 2190 0 2190 0 0 29
c0 20 -6 31 -17 34 -17 4 -17 5 0 6 16 1 17 54 17 959 0 946 0 957 -20 970
-15 9 -20 9 -20 0 0 -9 -3 -9 -11 -1 -9 9 -8 16 4 27 22 22 35 20 40 -6 2 -13
5 264 6 616 1 503 -1 642 -11 654 -10 12 -10 14 -1 8 10 -6 13 106 12 538 l0
545 -339 1 c-315 0 -339 -1 -343 -17 -4 -17 -5 -17 -6 0 -1 16 -23 17 -308 17
-308 -1 -308 -1 -284 -20 31 -26 11 -26 -22 0 -18 14 -40 20 -76 20 -50 0 -62
-10 -43 -35 11 -15 97 -74 124 -84 21 -9 20 -10 -11 -10 -34 -1 -51 10 -145
92 l-44 37 -321 0 c-190 -1 -321 -5 -321 -10 0 -5 -15 -17 -32 -26 -27 -14
-31 -14 -21 -2 7 8 9 19 5 23 -4 5 1 5 10 2 10 -3 20 -2 23 4 4 6 -66 8 -197
7 -162 -2 -202 -6 -200 -16 1 -8 -2 -11 -8 -7 -6 3 -8 10 -5 15 3 6 -67 9
-165 9 -184 0 -181 1 -160 -55 9 -24 9 -25 -5 -14 -8 7 -15 25 -15 41 l0 29
-230 0 c-172 0 -230 -3 -230 -12 0 -9 -3 -9 -12 0 -9 9 -135 12 -505 12 l-493
0 0 -171z m1541 129 c-3 -21 -6 -26 -9 -15 -3 17 3 47 11 47 2 0 1 -15 -2 -32z
m793 10 c-10 -13 -20 -25 -21 -27 -2 -2 -3 1 -3 7 0 11 27 42 37 42 3 0 -2
-10 -13 -22z m1784 2 c-7 -10 -14 -18 -15 -16 -6 6 9 36 18 36 5 0 4 -9 -3
-20z m246 -2 c3 -15 -1 -28 -11 -38 -15 -14 -16 -13 -4 2 9 13 10 22 1 37 -6
12 -7 21 -2 21 6 0 12 -10 16 -22z m-3157 -10 c-3 -8 -6 -5 -6 6 -1 11 2 17 5
13 3 -3 4 -12 1 -19z m934 -5 c-12 -20 -14 -14 -5 12 4 9 9 14 11 11 3 -2 0
-13 -6 -23z m2076 11 c-3 -3 -12 -4 -19 -1 -8 3 -5 6 6 6 11 1 17 -2 13 -5z
m58 -14 c3 -5 1 -10 -4 -10 -6 0 -11 5 -11 10 0 6 2 10 4 10 3 0 8 -4 11 -10z
m-2132 -35 c-3 -9 -8 -14 -10 -11 -3 3 -2 9 2 15 9 16 15 13 8 -4z m947 5 c0
-5 -2 -10 -4 -10 -3 0 -8 5 -11 10 -3 6 -1 10 4 10 6 0 11 -4 11 -10z m48 -1
c-2 -6 -8 -10 -13 -10 -5 0 -11 4 -13 10 -2 6 4 11 13 11 9 0 15 -5 13 -11z
m919 -24 c-7 -13 -14 -20 -15 -14 -2 5 2 16 8 24 18 21 20 18 7 -10z m-2537
-6 c0 -5 -4 -9 -10 -9 -5 0 -10 7 -10 16 0 8 5 12 10 9 6 -3 10 -10 10 -16z
m1650 11 c0 -5 -4 -10 -10 -10 -5 0 -10 5 -10 10 0 6 5 10 10 10 6 0 10 -4 10
-10z m1144 -5 c3 8 11 15 18 15 7 -1 -3 -14 -22 -30 -36 -31 -80 -40 -80 -16
0 19 27 39 40 31 8 -5 5 -12 -7 -21 -17 -14 -17 -15 2 -12 14 3 20 11 19 27
-1 21 0 22 11 7 11 -15 13 -15 19 -1z m-2904 1 c0 -3 -4 -8 -10 -11 -5 -3 -10
-1 -10 4 0 6 5 11 10 11 6 0 10 -2 10 -4z m705 -15 c-3 -6 -11 -11 -16 -11 -5
0 -4 6 3 14 14 16 24 13 13 -3z m1125 10 c0 -6 -4 -13 -10 -16 -5 -3 -10 1
-10 9 0 9 5 16 10 16 6 0 10 -4 10 -9z m75 -1 c3 -5 1 -10 -4 -10 -6 0 -11 5
-11 10 0 6 2 10 4 10 3 0 8 -4 11 -10z m899 -5 c-4 -8 -11 -15 -16 -15 -6 0
-5 6 2 15 7 8 14 15 16 15 2 0 1 -7 -2 -15z m-1908 -12 c-4 -10 2 -25 15 -40
13 -12 18 -23 12 -23 -20 0 -45 38 -38 59 3 12 9 21 12 21 3 0 2 -7 -1 -17z
m1874 -4 c0 -6 -4 -7 -10 -4 -5 3 -10 11 -10 16 0 6 5 7 10 4 6 -3 10 -11 10
-16z m-2100 -3 c0 -3 -4 -8 -10 -11 -5 -3 -10 -1 -10 4 0 6 5 11 10 11 6 0 10
-2 10 -4z m1057 -2 c-3 -3 -12 -4 -19 -1 -8 3 -5 6 6 6 11 1 17 -2 13 -5z
m-1134 -34 c7 0 6 -5 -3 -11 -11 -8 -12 -12 -2 -16 6 -2 12 -14 12 -26 0 -39
-21 -2 -25 44 -2 24 -1 36 2 27 2 -10 10 -18 16 -18z m1207 14 c0 -2 -9 -4
-20 -4 -11 0 -20 4 -20 9 0 5 9 7 20 4 11 -3 20 -7 20 -9z m800 -4 c0 -5 -5
-10 -11 -10 -5 0 -7 5 -4 10 3 6 8 10 11 10 2 0 4 -4 4 -10z m-2495 -19 c-3
-5 -1 -12 5 -16 6 -4 5 -11 -4 -21 -19 -18 -32 -18 -17 0 6 7 9 21 5 30 -3 9
-1 16 6 16 6 0 9 -4 5 -9z m983 -16 c2 -2 -6 -6 -17 -10 -13 -4 -27 0 -37 10
-15 14 -13 15 17 10 18 -3 35 -8 37 -10z m937 -1 c14 -9 25 -23 25 -32 0 -12
-4 -11 -20 6 -24 25 -31 27 -48 10 -9 -9 -12 -9 -12 3 0 32 19 37 55 13z m146
-15 c-5 -13 -10 -19 -10 -12 -1 15 10 45 15 40 3 -2 0 -15 -5 -28z m596 -6
c-3 -10 -5 -4 -5 12 0 17 2 24 5 18 2 -7 2 -21 0 -30z m-1963 11 c9 -3 16 -11
16 -16 0 -6 -7 -5 -15 2 -21 17 -31 5 -14 -16 13 -16 12 -16 -8 -4 -16 11 -19
17 -11 27 12 15 11 15 32 7z m1501 -26 c5 -5 -5 -3 -23 3 -18 6 -35 15 -38 20
-6 10 45 -10 61 -23z m-2111 -2 c-3 -9 -10 -16 -15 -16 -5 0 -4 9 3 20 14 22
21 20 12 -4z m422 -22 c-6 -16 -26 -19 -26 -3 0 5 5 7 10 4 6 -4 11 6 11 22 1
18 3 22 6 10 3 -10 2 -25 -1 -33z m129 26 c3 -5 -1 -10 -10 -10 -9 0 -13 5
-10 10 3 6 8 10 10 10 2 0 7 -4 10 -10z m1286 -20 c5 -3 -1 -11 -11 -18 -12
-7 -20 -8 -20 -2 0 5 6 10 13 10 9 0 8 3 -2 9 -8 5 -10 14 -5 22 6 10 9 10 12
-1 3 -8 9 -17 13 -20z m342 23 c-7 -2 -21 -2 -30 0 -10 3 -4 5 12 5 17 0 24
-2 18 -5z m-1665 -32 c-6 -2 -4 -7 3 -13 11 -8 11 -9 -1 -5 -8 2 -17 14 -18
26 -3 20 -2 22 11 10 9 -8 11 -16 5 -18z m1442 19 c0 -5 -4 -10 -10 -10 -5 0
-10 5 -10 10 0 6 5 10 10 10 6 0 10 -4 10 -10z m776 -22 c-2 -18 -5 -35 -5
-38 -1 -3 -8 4 -16 14 -8 11 -15 16 -15 12 0 -4 -4 -5 -10 -1 -12 7 20 45 38
45 9 0 12 -10 8 -32z m-3129 0 c2 -17 0 -19 -7 -8 -5 8 -6 18 -4 22 8 12 10
10 11 -14z m438 12 c3 -5 2 -10 -4 -10 -5 0 -13 5 -16 10 -3 6 -2 10 4 10 5 0
13 -4 16 -10z m1835 -5 c-25 -30 -7 -38 83 -36 l87 2 0 -1920 0 -1921 -435 0
-435 0 0 585 0 585 58 1 c31 0 90 0 130 -1 l72 -1 0 383 0 383 -27 13 c-15 6
-35 12 -45 12 -10 0 -18 5 -18 11 0 6 8 8 19 4 11 -3 22 -1 26 5 3 5 14 10 23
10 11 0 13 -3 6 -8 -9 -5 -8 -11 2 -20 12 -11 14 81 13 625 -1 430 -4 624 -11
595 -5 -23 -20 -61 -33 -85 -20 -34 -25 -38 -25 -19 0 13 -4 20 -10 17 -6 -3
-8 -18 -5 -33 3 -15 2 -21 -1 -14 -6 14 -44 17 -44 3 0 -11 -47 -30 -81 -33
-30 -2 -89 20 -89 34 0 6 7 5 15 -2 20 -17 32 -5 15 15 -7 9 -10 18 -8 21 3 3
12 -8 19 -25 11 -25 19 -30 44 -28 16 1 36 10 43 20 7 9 23 17 35 17 14 0 27
10 35 28 24 49 26 56 14 48 -8 -4 -12 0 -13 11 0 12 -5 9 -13 -11 -14 -30 -33
-20 -22 11 4 9 1 20 -6 25 -10 6 -10 10 2 19 12 8 12 12 2 16 -10 4 -8 11 9
29 28 30 64 32 66 4 1 -11 -4 -20 -13 -20 -8 0 -14 -8 -14 -17 0 -15 -2 -16
-9 -3 -6 8 -7 18 -4 24 3 5 1 6 -6 2 -6 -4 -8 -12 -5 -18 4 -6 0 -14 -7 -19
-7 -4 -11 -11 -8 -14 9 -8 60 15 83 38 10 10 24 16 32 13 12 -5 14 43 14 300
l0 305 153 -1 c186 -1 176 -2 154 14 -16 12 -16 14 -2 20 9 3 13 2 10 -4 -3
-6 3 -10 14 -10 12 0 21 -5 21 -10 0 -6 15 -10 34 -8 27 1 36 7 41 25 3 13 10
23 16 23 8 0 8 -5 -1 -15z m700 5 c0 -5 -4 -10 -10 -10 -5 0 -10 5 -10 10 0 6
5 10 10 10 6 0 10 -4 10 -10z m-2673 -22 c-3 -8 -6 -5 -6 6 -1 11 2 17 5 13 3
-3 4 -12 1 -19z m668 12 c-3 -5 -11 -10 -16 -10 -6 0 -7 5 -4 10 3 6 11 10 16
10 6 0 7 -4 4 -10z m-567 -36 c-4 -3 -12 5 -18 18 -12 22 -12 22 6 6 10 -10
15 -20 12 -24z m588 5 l144 2 1 -113 c0 -62 0 -138 -1 -169 l-1 -56 33 3 33 3
-30 -7 -30 -7 -3 -348 c-2 -267 0 -347 10 -345 6 2 14 -6 16 -16 3 -14 0 -17
-12 -13 -15 6 -16 -18 -14 -266 l3 -272 40 -22 c22 -12 47 -22 55 -22 8 -1 38
-12 65 -26 28 -13 58 -25 68 -25 9 0 17 -5 17 -11 0 -7 -9 -9 -22 -4 -39 11
-115 32 -128 34 -3 1 2 6 10 12 12 9 12 10 -4 5 -10 -4 -24 -2 -30 3 -6 5 -26
12 -43 16 l-33 7 -2 -511 c-3 -418 -1 -512 10 -516 8 -3 69 -5 137 -5 l124 0
3 -267 c2 -148 2 -411 0 -586 l-3 -317 -430 0 -429 0 0 53 c-2 274 -2 861 -1
974 l1 142 138 3 137 3 2 1050 c2 814 0 1051 -10 1057 -9 6 -9 8 1 8 17 0 16
508 -1 528 -8 10 -7 16 3 22 8 5 18 6 23 3 4 -3 73 -4 153 -4z m286 -19 c21
-14 38 -29 38 -33 0 -10 -28 6 -65 39 -36 31 -24 28 27 -6z m1680 8 c-7 -7
-12 -8 -12 -2 0 6 3 14 7 17 3 4 9 5 12 2 2 -3 -1 -11 -7 -17z m-2832 -1317
c0 -896 3 -1332 10 -1336 6 -4 62 -6 125 -6 l115 1 2 -238 c2 -130 2 -393 0
-585 l-3 -347 -434 0 -435 0 -1 848 c0 466 -1 854 -1 862 0 8 1 491 1 1073 l1
1057 310 0 310 0 0 -1329z m2765 1319 c3 -5 1 -10 -4 -10 -6 0 -11 5 -11 10 0
6 2 10 4 10 3 0 8 -4 11 -10z m-3675 -19 c0 -5 -19 -12 -42 -16 -47 -8 -79
-22 -90 -39 -5 -8 -8 -7 -8 1 0 19 48 47 88 50 19 1 37 5 40 8 8 8 12 6 12 -4z
m3490 -26 c0 -5 -5 -3 -10 5 -5 8 -10 20 -10 25 0 6 5 3 10 -5 5 -8 10 -19 10
-25z m-3420 -17 c0 -4 -7 -8 -15 -8 -9 0 -12 6 -8 17 5 13 2 15 -15 11 -23 -6
-31 7 -9 15 13 5 47 -20 47 -35z m120 31 c0 -5 -11 -8 -24 -7 -29 3 -27 13 3
15 12 1 21 -2 21 -8z m3534 -24 c-10 -8 -26 -14 -34 -14 -9 0 -6 4 6 9 12 5
25 14 29 20 4 6 10 9 13 6 3 -4 -3 -13 -14 -21z m-4004 5 c0 -5 -5 -10 -11
-10 -5 0 -7 5 -4 10 3 6 8 10 11 10 2 0 4 -4 4 -10z m2442 -27 c16 -18 29 -36
30 -40 0 -4 4 -17 10 -28 8 -18 8 -18 -4 -3 -7 9 -21 31 -31 48 -9 18 -26 34
-37 37 -11 3 -20 9 -20 14 0 17 23 4 52 -28z m-2497 5 c-16 -6 -36 -15 -42
-21 -9 -6 -13 -6 -13 1 0 11 45 30 70 30 8 0 2 -4 -15 -10z m1452 -10 c-3 -8
-6 -5 -6 6 -1 11 2 17 5 13 3 -3 4 -12 1 -19z m2408 -10 c13 -27 13 -30 1 -14
-14 18 -15 17 -21 -10 -10 -43 -15 -57 -20 -53 -2 3 0 24 6 47 5 24 7 47 4 53
-4 5 -2 9 4 9 6 0 18 -15 26 -32z m-3730 12 c-3 -5 -12 -7 -20 -3 -21 7 -19
13 6 13 11 0 18 -4 14 -10z m1315 -35 c0 -8 -4 -15 -10 -15 -5 0 -7 7 -4 15 4
8 8 15 10 15 2 0 4 -7 4 -15z m1125 -4 c3 -5 1 -12 -4 -15 -5 -3 -11 1 -15 9
-6 16 9 21 19 6z m-261 -75 c8 -18 19 -37 25 -40 6 -4 16 -17 22 -29 l10 -22
-18 21 c-11 12 -32 29 -48 38 -17 10 -22 15 -12 12 15 -5 17 -2 11 17 -4 12
-12 25 -18 29 -8 6 -7 8 1 8 7 0 19 -15 27 -34z m316 -25 c0 -30 -7 -25 -14
12 -2 14 -8 32 -11 39 -4 7 1 4 9 -6 9 -11 16 -31 16 -45z m-970 19 c0 -5 -5
-10 -11 -10 -5 0 -7 5 -4 10 3 6 8 10 11 10 2 0 4 -4 4 -10z m754 -29 c-6 -6
-24 19 -24 34 1 6 7 1 15 -9 8 -11 12 -22 9 -25z m-924 -47 c0 -21 8 -41 23
-55 15 -15 18 -23 9 -26 -6 -3 -10 -9 -6 -14 3 -5 0 -9 -6 -9 -7 0 -10 7 -6
15 3 8 -3 19 -14 25 -27 15 -33 12 -27 -10 3 -11 0 -20 -5 -20 -6 0 -8 12 -4
31 3 17 6 38 6 46 0 8 5 11 11 7 14 -8 -10 38 -24 47 -5 4 -7 15 -3 25 7 18 9
17 27 -5 10 -13 19 -38 19 -57z m-1357 59 c-7 -2 -19 -2 -25 0 -7 3 -2 5 12 5
14 0 19 -2 13 -5z m3684 -25 c-3 -8 -6 -5 -6 6 -1 11 2 17 5 13 3 -3 4 -12 1
-19z m364 -55 c13 -16 12 -17 -3 -4 -17 13 -22 21 -14 21 2 0 10 -8 17 -17z
m-1871 3 c0 -3 -4 -8 -10 -11 -5 -3 -10 -1 -10 4 0 6 5 11 10 11 6 0 10 -2 10
-4z m1502 -26 c-12 -12 -22 -26 -22 -32 0 -6 -3 -9 -6 -6 -7 7 14 50 30 60 21
14 19 -3 -2 -22z m-1449 13 c-7 -2 -19 -2 -25 0 -7 3 -2 5 12 5 14 0 19 -2 13
-5z m162 -14 c-14 -6 -7 -7 23 -3 46 6 69 -4 116 -51 14 -14 30 -25 35 -25 5
0 13 -4 16 -10 15 -24 -27 -7 -59 24 -20 18 -36 31 -36 28 0 -2 -7 1 -15 8
-11 9 -32 11 -70 6 -30 -3 -55 -4 -55 -1 0 14 27 34 45 34 l20 0 -20 -10z
m179 -5 c3 -8 2 -12 -4 -9 -6 3 -10 10 -10 16 0 14 7 11 14 -7z m-891 -32
c-20 -21 -28 -20 -20 3 4 8 13 15 22 15 13 0 12 -3 -2 -18z m2472 -51 c-6 -5
-25 10 -25 20 0 5 6 4 14 -3 8 -7 12 -15 11 -17z m-1848 3 c-3 -3 -12 -4 -19
-1 -8 3 -5 6 6 6 11 1 17 -2 13 -5z m1305 -16 c-7 -7 -12 -8 -12 -2 0 6 3 14
7 17 3 4 9 5 12 2 2 -3 -1 -11 -7 -17z m-1142 8 c0 -2 -7 -7 -16 -10 -8 -3
-12 -2 -9 4 6 10 25 14 25 6z m1455 -6 c3 -6 -1 -7 -9 -4 -18 7 -21 14 -7 14
6 0 13 -4 16 -10z m-2470 -30 c15 -16 31 -20 86 -20 58 0 70 -3 79 -20 7 -14
7 -20 0 -20 -5 0 -10 8 -10 18 0 14 -2 15 -10 2 -5 -8 -10 -32 -10 -52 0 -21
-4 -38 -10 -38 -5 0 -10 5 -10 10 0 13 -37 50 -49 50 -5 0 -11 5 -13 12 -2 6
-19 17 -38 23 -37 13 -74 55 -48 55 8 0 23 -9 33 -20z m-1615 -20 c8 -5 11
-10 5 -10 -5 0 -17 5 -25 10 -8 5 -10 10 -5 10 6 0 17 -5 25 -10z m2340 6 c0
-3 -4 -8 -10 -11 -5 -3 -10 -1 -10 4 0 6 5 11 10 11 6 0 10 -2 10 -4z m1483
-23 c-7 -2 -21 -2 -30 0 -10 3 -4 5 12 5 17 0 24 -2 18 -5z m-3762 -15 c22 -6
39 -15 39 -19 0 -4 -15 -2 -32 5 -18 7 -40 16 -48 19 -28 10 3 7 41 -5z m2692
-8 c3 -11 3 -20 1 -20 -2 0 -8 9 -14 20 -6 11 -7 20 -2 20 6 0 12 -9 15 -20z
m-288 0 c-3 -5 -11 -10 -16 -10 -6 0 -7 5 -4 10 3 6 11 10 16 10 6 0 7 -4 4
-10z m62 4 c-3 -3 -12 -4 -19 -1 -8 3 -5 6 6 6 11 1 17 -2 13 -5z m1766 -11
c-7 -3 -13 -12 -14 -21 0 -11 -2 -13 -6 -4 -6 15 17 46 26 36 3 -4 0 -9 -6
-11z m-4138 -20 c19 -9 35 -20 35 -25 0 -4 5 -8 12 -8 17 0 78 -49 78 -63 0
-7 9 -18 20 -25 11 -7 20 -18 20 -24 0 -7 -18 5 -39 27 -22 22 -37 44 -33 49
3 5 0 6 -6 2 -7 -4 -22 2 -34 13 -12 12 -27 21 -34 21 -6 0 -14 7 -18 15 -3 8
-12 15 -20 15 -8 0 -18 5 -21 10 -9 14 -1 13 40 -7z m1625 7 c0 -5 -5 -10 -11
-10 -5 0 -7 5 -4 10 3 6 8 10 11 10 2 0 4 -4 4 -10z m110 6 c0 -2 -9 -6 -20
-9 -11 -3 -20 -1 -20 4 0 5 9 9 20 9 11 0 20 -2 20 -4z m2105 -14 c-3 -3 -11
0 -18 7 -9 10 -8 11 6 5 10 -3 15 -9 12 -12z m233 -27 c-3 -3 -9 2 -12 12 -6
14 -5 15 5 6 7 -7 10 -15 7 -18z m-1688 1 c0 -11 -19 -15 -25 -6 -3 5 1 10 9
10 9 0 16 -2 16 -4z m1510 -26 c6 -11 8 -20 6 -20 -3 0 -10 9 -16 20 -6 11 -8
20 -6 20 3 0 10 -9 16 -20z m-2251 -9 c7 -5 9 -11 5 -14 -5 -3 -15 1 -22 9
-14 16 -5 18 17 5z m956 -1 c3 -5 1 -10 -4 -10 -6 0 -11 5 -11 10 0 6 2 10 4
10 3 0 8 -4 11 -10z m-275 -30 c0 -5 -2 -10 -4 -10 -3 0 -8 5 -11 10 -3 6 -1
10 4 10 6 0 11 -4 11 -10z m-2150 -15 c0 -8 -2 -15 -4 -15 -2 0 -6 7 -10 15
-3 8 -1 15 4 15 6 0 10 -7 10 -15z m65 -6 c4 -6 4 -13 0 -17 -3 -3 -9 -1 -13
5 -4 6 -16 13 -27 16 -16 4 -14 5 7 6 15 0 30 -4 33 -10z m2285 7 c0 -3 -4 -8
-10 -11 -5 -3 -10 -1 -10 4 0 6 5 11 10 11 6 0 10 -2 10 -4z m-274 -33 c-10
-10 -19 5 -10 18 6 11 8 11 12 0 2 -7 1 -15 -2 -18z m57 12 c-3 -9 -8 -14 -10
-11 -3 3 -2 9 2 15 9 16 15 13 8 -4z m120 8 c-7 -2 -19 -2 -25 0 -7 3 -2 5 12
5 14 0 19 -2 13 -5z m-825 -59 c-3 -27 -4 -26 -9 8 -3 22 -1 34 4 29 5 -5 7
-21 5 -37z m63 15 c-5 -13 -10 -19 -10 -12 -1 15 10 45 15 40 3 -2 0 -15 -5
-28z m2406 -1 c-3 -8 -6 -5 -6 6 -1 11 2 17 5 13 3 -3 4 -12 1 -19z m-3817 2
c0 -5 -7 -7 -15 -4 -8 4 -15 8 -15 10 0 2 7 4 15 4 8 0 15 -4 15 -10z m205 0
c-3 -5 -12 -10 -18 -10 -7 0 -6 4 3 10 19 12 23 12 15 0z m2135 0 c0 -5 -4
-10 -10 -10 -5 0 -10 5 -10 10 0 6 5 10 10 10 6 0 10 -4 10 -10z m-2233 -6
c-3 -3 -12 -4 -19 -1 -8 3 -5 6 6 6 11 1 17 -2 13 -5z m2169 -32 c-17 -16 -18
-16 -5 5 7 12 15 20 18 17 3 -2 -3 -12 -13 -22z m-2209 12 c-3 -3 -12 -4 -19
-1 -8 3 -5 6 6 6 11 1 17 -2 13 -5z m143 -4 c-8 -5 -24 -9 -35 -9 -16 1 -16 2
5 9 35 11 48 11 30 0z m1905 -9 c-3 -6 -11 -11 -16 -11 -5 0 -4 6 3 14 14 16
24 13 13 -3z m-2175 -28 c-11 -17 -11 -17 -6 0 3 10 6 24 7 30 0 9 2 9 5 0 3
-7 0 -20 -6 -30z m198 30 c-10 -2 -26 -2 -35 0 -10 3 -2 5 17 5 19 0 27 -2 18
-5z m2087 -53 c-3 -5 -16 -15 -28 -21 -19 -9 -19 -8 3 10 28 23 34 26 25 11z
m-2308 -22 c-3 -8 -6 -5 -6 6 -1 11 2 17 5 13 3 -3 4 -12 1 -19z m3810 0 c-3
-8 -6 -5 -6 6 -1 11 2 17 5 13 3 -3 4 -12 1 -19z m-1700 -20 c-3 -7 -5 -2 -5
12 0 14 2 19 5 13 2 -7 2 -19 0 -25z m-630 -16 c8 -5 9 -13 3 -22 -8 -13 -10
-13 -10 2 0 9 -6 19 -12 21 -7 3 -8 6 -3 6 6 0 15 -3 22 -7z m1033 -72 c0 -5
-5 -10 -11 -10 -5 0 -7 5 -4 10 3 6 8 10 11 10 2 0 4 -4 4 -10z m1338 -15 c-6
-14 -13 -23 -16 -21 -7 7 9 46 18 46 5 0 4 -11 -2 -25z m-1211 -27 c-3 -8 -6
-5 -6 6 -1 11 2 17 5 13 3 -3 4 -12 1 -19z m-1586 -2 c5 3 9 0 9 -6 0 -7 -7
-9 -16 -6 -9 3 -18 6 -20 6 -3 0 -2 5 2 12 6 9 9 9 12 0 2 -7 8 -10 13 -6z
m926 -8 c-3 -8 -6 -5 -6 6 -1 11 2 17 5 13 3 -3 4 -12 1 -19z m415 -25 c-3
-16 -7 -22 -10 -15 -4 13 4 42 11 42 2 0 2 -12 -1 -27z m-389 -8 c-3 -9 -8
-14 -10 -11 -3 3 -2 9 2 15 9 16 15 13 8 -4z m-864 -24 c7 -5 12 -13 10 -18
-2 -5 -12 -1 -21 9 -19 19 -13 24 11 9z m-1176 -51 c3 -11 1 -18 -4 -14 -5 3
-9 12 -9 20 0 20 7 17 13 -6z m2337 -5 c0 -8 -2 -15 -4 -15 -2 0 -6 7 -10 15
-3 8 -1 15 4 15 6 0 10 -7 10 -15z m1520 -54 c12 -24 -1 -35 -31 -26 -17 6
-18 9 -7 22 11 14 10 15 -11 8 -16 -5 -21 -4 -17 4 12 18 54 13 66 -8z m-125
-1 c-3 -5 -12 -10 -18 -10 -7 0 -6 4 3 10 19 12 23 12 15 0z m165 -5 c0 -8 -4
-15 -10 -15 -5 0 -7 7 -4 15 4 8 8 15 10 15 2 0 4 -7 4 -15z m-1663 -62 c-3
-10 -5 -4 -5 12 0 17 2 24 5 18 2 -7 2 -21 0 -30z m1766 -70 c-7 -50 -13 -55
-13 -11 0 29 6 48 16 48 1 0 0 -17 -3 -37z m-2629 -3 c9 0 16 -4 16 -9 0 -5
10 -7 21 -4 18 5 20 3 15 -15 -6 -18 -2 -21 41 -28 26 -4 42 -9 34 -12 -27 -9
-119 20 -124 39 -3 13 -11 17 -21 13 -9 -3 -16 -2 -16 4 0 6 -3 19 -6 29 -5
17 -5 17 9 1 8 -10 22 -18 31 -18z m2596 0 c0 -5 -5 -10 -11 -10 -5 0 -7 5 -4
10 3 6 8 10 11 10 2 0 4 -4 4 -10z m-50 -69 c0 -14 -18 -23 -31 -15 -8 4 -7 9
2 15 18 11 29 11 29 0z m-2607 -38 c5 -26 4 -26 -9 -8 -16 22 -18 35 -5 35 5
0 11 -12 14 -27z m-1543 -24 c-7 -11 -14 -18 -17 -15 -3 3 0 12 7 21 18 21 23
19 10 -6z m2430 -13 c0 -2 -8 -10 -17 -17 -16 -13 -17 -12 -4 4 13 16 21 21
21 13z m-610 -16 c0 -5 -2 -10 -4 -10 -3 0 -8 5 -11 10 -3 6 -1 10 4 10 6 0
11 -4 11 -10z m2314 -9 c3 -4 3 -11 0 -14 -8 -8 -34 3 -34 14 0 11 27 12 34 0z
m-1744 -81 c0 -5 -4 -10 -10 -10 -5 0 -10 5 -10 10 0 6 5 10 10 10 6 0 10 -4
10 -10z m-751 -37 c6 -4 -32 -32 -44 -32 -5 0 -1 6 9 14 17 13 17 17 5 32 -13
17 -13 17 6 3 11 -8 22 -16 24 -17z m135 12 c9 -9 22 -12 33 -8 16 6 16 5 4
-10 -13 -17 -15 -17 -35 1 -12 11 -28 22 -36 25 -12 4 -12 6 2 6 9 1 23 -6 32
-14z m-434 -28 c-9 -7 -26 -23 -39 -37 -21 -22 -22 -23 -12 -3 6 12 21 29 33
37 26 19 40 21 18 3z m2830 -2 c0 -8 -7 -15 -15 -15 -8 0 -15 7 -15 15 0 8 7
15 15 15 8 0 15 -7 15 -15z m-1505 -5 c-3 -5 -12 -10 -18 -10 -7 0 -6 4 3 10
19 12 23 12 15 0z m-1101 -40 c-9 -16 -17 -30 -19 -30 -2 0 1 14 6 30 6 17 15
30 19 30 5 0 2 -13 -6 -30z m1014 -83 c6 0 12 -4 12 -9 0 -5 7 -2 16 6 25 25
51 19 62 -13 9 -25 53 -60 85 -67 4 -1 10 -3 15 -4 4 -1 10 -2 15 -1 4 0 7 -5
7 -13 0 -18 21 -26 52 -20 12 2 16 1 8 -2 -8 -4 -17 -10 -20 -15 -3 -4 -41 15
-85 43 -44 27 -87 53 -95 58 -13 9 -13 11 0 20 15 12 7 11 -50 -6 -22 -6 -80
15 -80 29 0 5 10 5 23 1 12 -4 28 -7 35 -7z m-1158 -32 c0 -2 -10 -10 -22 -16
-21 -11 -22 -11 -9 4 13 16 31 23 31 12z m-960 -46 c-7 -11 -14 -18 -17 -15
-3 3 0 12 7 21 18 21 23 19 10 -6z m3115 -119 c3 -6 -1 -7 -9 -4 -18 7 -21 14
-7 14 6 0 13 -4 16 -10z m-3480 -10 c-3 -5 -10 -10 -16 -10 -5 0 -9 5 -9 10 0
6 7 10 16 10 8 0 12 -4 9 -10z m4155 -20 c-12 -22 -27 -25 -50 -10 -12 8 -11
10 7 10 12 0 25 5 28 10 12 20 26 10 15 -10z m-4316 -68 c-6 -4 -14 -14 -17
-22 -4 -10 -6 -8 -6 8 -1 15 5 22 17 22 10 0 13 -3 6 -8z m90 -26 c-9 -15 -19
-25 -21 -22 -5 5 30 56 35 51 2 -2 -4 -15 -14 -29z m3746 -26 c0 -5 -2 -10 -4
-10 -3 0 -8 5 -11 10 -3 6 -1 10 4 10 6 0 11 -4 11 -10z m-3790 -45 c-13 -14
-25 -23 -28 -21 -5 6 41 55 47 50 3 -2 -6 -15 -19 -29z m3956 -23 c-4 -3 -14
2 -24 12 -16 18 -16 18 6 6 13 -6 21 -14 18 -18z m-3356 -26 c0 -3 -4 -8 -10
-11 -5 -3 -10 -1 -10 4 0 6 5 11 10 11 6 0 10 -2 10 -4z m-20 -36 c0 -5 -5
-10 -11 -10 -5 0 -7 5 -4 10 3 6 8 10 11 10 2 0 4 -4 4 -10z m3287 -76 c-3 -3
-12 -4 -19 -1 -8 3 -5 6 6 6 11 1 17 -2 13 -5z m-3794 -212 c-3 -12 -9 -19
-14 -16 -5 3 -3 14 3 24 15 24 19 21 11 -8z m227 -2 c0 -11 -4 -20 -9 -20 -5
0 -7 9 -4 20 3 11 7 20 9 20 2 0 4 -9 4 -20z m2168 -27 c-10 -2 -26 -2 -35 0
-10 3 -2 5 17 5 19 0 27 -2 18 -5z m-2373 -65 c4 -7 -3 -2 -14 11 -12 13 -21
31 -21 40 0 14 6 6 35 -51z m2265 58 c0 -2 -7 -7 -16 -10 -8 -3 -12 -2 -9 4 6
10 25 14 25 6z m-60 -20 c0 -2 -7 -7 -16 -10 -8 -3 -12 -2 -9 4 6 10 25 14 25
6z m1340 -46 c8 -5 11 -10 5 -10 -5 0 -17 5 -25 10 -8 5 -10 10 -5 10 6 0 17
-5 25 -10z m69 -53 l25 -32 -32 29 c-33 31 -37 36 -24 35 4 0 18 -14 31 -32z
m-2375 -13 c3 -8 2 -12 -4 -9 -6 3 -10 10 -10 16 0 14 7 11 14 -7z m-1170 -49
c-4 -8 -8 -15 -10 -15 -2 0 -4 7 -4 15 0 8 4 15 10 15 5 0 7 -7 4 -15z m21
-55 c8 -13 -5 -13 -25 0 -13 8 -13 10 2 10 9 0 20 -4 23 -10z m3980 -140 c3
-5 -1 -10 -9 -10 -9 0 -16 5 -16 10 0 6 4 10 9 10 6 0 13 -4 16 -10z m-4041
-15 c-4 -8 -8 -15 -10 -15 -2 0 -4 7 -4 15 0 8 4 15 10 15 5 0 7 -7 4 -15z
m4113 -20 c0 -8 -4 -12 -9 -9 -4 3 -8 9 -8 15 0 5 4 9 8 9 5 0 9 -7 9 -15z
m-260 -571 c-3 -3 -12 -4 -19 -1 -8 3 -5 6 6 6 11 1 17 -2 13 -5z m-198 -483
c7 -5 9 -11 5 -14 -5 -3 -15 1 -22 9 -14 16 -5 18 17 5z m361 -1 c0 -5 -7 -7
-15 -4 -8 3 -28 1 -45 -4 -16 -6 -30 -7 -30 -2 0 5 -8 11 -17 13 -10 3 10 5
45 6 34 0 62 -3 62 -9z m40 0 c0 -5 -2 -10 -4 -10 -3 0 -8 5 -11 10 -3 6 -1
10 4 10 6 0 11 -4 11 -10z m-325 -10 c-3 -5 -12 -10 -18 -10 -7 0 -6 4 3 10
19 12 23 12 15 0z m395 0 c13 -9 13 -10 0 -9 -8 0 -24 4 -35 9 l-20 9 20 0
c11 0 27 -4 35 -9z m-147 -17 c-7 -2 -19 -2 -25 0 -7 3 -2 5 12 5 14 0 19 -2
13 -5z m-490 -10 c-7 -2 -19 -2 -25 0 -7 3 -2 5 12 5 14 0 19 -2 13 -5z
m-2443 -23 c0 -5 -4 -10 -10 -10 -5 0 -10 5 -10 10 0 6 5 10 10 10 6 0 10 -4
10 -10z"/>
<path d="M2980 3385 c-8 -9 -8 -15 -2 -15 12 0 26 19 19 26 -2 2 -10 -2 -17
-11z"/>
</g>
</svg>
