<?xml version="1.0" standalone="no"?>
<!DOCTYPE svg PUBLIC "-//W3C//DTD SVG 20010904//EN"
 "http://www.w3.org/TR/2001/REC-SVG-20010904/DTD/svg10.dtd">
<svg version="1.0" xmlns="http://www.w3.org/2000/svg"
 width="350.000000pt" height="350.000000pt" viewBox="0 0 350.000000 350.000000"
 preserveAspectRatio="xMidYMid meet">
<metadata>
Created by potrace 1.14, written by Peter Selinger 2001-2017
</metadata>
<g transform="translate(0.000000,350.000000) scale(0.100000,-0.100000)"
fill="#000000" stroke="none">
<path d="M0 3311 c0 -105 2 -191 4 -191 2 0 26 10 53 22 75 33 87 33 117 -6
37 -49 34 -60 -11 -51 -21 4 -66 8 -100 9 l-63 2 0 -1548 0 -1548 1248 0 1247
0 11 34 c8 27 7 36 -5 45 -14 10 -13 11 6 7 13 -2 26 0 29 6 4 6 24 7 53 2 25
-4 55 -6 66 -6 14 1 16 -1 7 -7 -8 -5 -14 -12 -15 -17 -1 -9 -52 -31 -94 -41
-77 -18 20 -23 410 -21 l432 3 52 105 52 105 0 477 0 477 -31 51 c-17 28 -28
53 -25 56 4 4 11 -6 17 -21 6 -15 17 -37 25 -48 14 -20 15 -17 15 43 l0 65
-43 26 c-56 35 -137 55 -148 37 -4 -7 -11 -9 -15 -5 -18 18 80 83 155 103 l46
11 3 1007 2 1006 -305 0 c-197 0 -305 -4 -305 -10 0 -5 -18 -10 -41 -10 -24 0
-38 4 -34 10 4 7 -344 10 -1037 10 -850 0 -1050 -3 -1083 -14 -80 -27 -93 -28
-115 -6 -20 20 -97 30 -85 10 12 -20 -7 -60 -29 -60 -28 0 -56 19 -38 27 13 5
17 33 4 33 -4 0 -14 -6 -21 -12 -10 -11 -14 -10 -22 5 -6 9 -17 17 -25 17 -12
0 -13 -4 -3 -21 10 -19 9 -20 -13 -14 -12 4 -28 11 -34 16 -6 5 -79 12 -163
15 l-151 5 0 -190z m200 164 c17 -9 30 -20 30 -26 0 -5 14 -15 30 -21 17 -5
35 -19 41 -29 5 -10 16 -19 23 -19 8 0 20 -7 27 -17 13 -15 11 -16 -15 -9 -17
4 -42 16 -57 27 -15 10 -36 19 -46 19 -11 0 -28 9 -38 20 -10 11 -26 22 -36
25 -16 5 -17 9 -6 26 14 23 11 23 47 4z m350 -16 c0 -10 -7 -19 -15 -19 -15 0
-21 31 -9 43 11 10 24 -3 24 -24z m-285 3 c-3 -3 -11 0 -18 7 -9 10 -8 11 6 5
10 -3 15 -9 12 -12z m61 -30 c-9 -9 -37 8 -31 18 5 8 11 7 21 -1 8 -6 12 -14
10 -17z m364 18 c0 -5 -2 -10 -4 -10 -3 0 -8 5 -11 10 -3 6 -1 10 4 10 6 0 11
-4 11 -10z m1335 -59 c-12 -11 -65 -3 -65 10 0 6 10 14 23 18 25 10 58 -12 42
-28z m-1205 6 c0 -23 -23 -37 -62 -37 -41 0 -45 4 -25 25 24 24 87 32 87 12z
m-680 -7 c-20 -13 -33 -13 -25 0 3 6 14 10 23 10 15 0 15 -2 2 -10z m308 -7
c2 -8 -5 -13 -17 -13 -21 0 -35 13 -24 24 10 10 36 3 41 -11z m692 -13 c0 -5
-4 -10 -10 -10 -5 0 -10 5 -10 10 0 6 5 10 10 10 6 0 10 -4 10 -10z m-835 -20
c3 -5 -1 -10 -9 -10 -8 0 -18 5 -21 10 -3 6 1 10 9 10 8 0 18 -4 21 -10z m115
-14 c0 -11 -19 -15 -25 -6 -3 5 1 10 9 10 9 0 16 -2 16 -4z m2533 -11 c19 -18
11 -55 -12 -55 -32 0 -61 13 -61 26 0 8 9 14 19 14 26 0 36 17 14 23 -14 4
-13 5 4 6 12 0 28 -6 36 -14z m-343 -5 c0 -5 -4 -10 -10 -10 -5 0 -10 5 -10
10 0 6 5 10 10 10 6 0 10 -4 10 -10z m65 0 c3 -5 1 -10 -4 -10 -6 0 -11 5 -11
10 0 6 2 10 4 10 3 0 8 -4 11 -10z m-192 -76 c-4 -10 -13 -14 -27 -10 -11 3
-27 6 -34 6 -7 0 -10 5 -7 10 3 6 22 10 40 10 27 0 33 -3 28 -16z m-150 -1
c-7 -2 -19 -2 -25 0 -7 3 -2 5 12 5 14 0 19 -2 13 -5z m-62 -13 c23 -13 25
-33 5 -49 -11 -9 -20 -10 -35 -1 -24 12 -26 25 -8 45 15 17 14 17 38 5z m458
-9 c12 -8 12 -12 2 -25 -12 -14 -7 -16 48 -16 l61 0 0 -437 c0 -1547 -1 -2387
-3 -2389 -2 -3 -456 -6 -574 -5 l-73 1 0 145 c0 137 -1 145 -19 145 -11 0 -22
4 -25 8 -9 14 12 35 28 29 14 -6 16 21 16 268 l0 275 76 0 76 0 -6 25 c-5 19
0 32 18 50 16 15 20 26 13 29 -9 5 -9 8 1 12 8 4 12 39 12 124 0 85 -4 120
-12 124 -10 5 -10 7 0 12 10 5 12 139 12 639 -1 609 -2 634 -20 640 -19 6 -36
35 -20 35 6 0 10 7 10 16 0 10 6 14 15 10 13 -5 15 13 15 119 l0 125 143 0
c144 0 144 0 155 25 12 26 27 31 51 16z m-384 -11 c-3 -5 -10 -10 -16 -10 -5
0 -9 5 -9 10 0 6 7 10 16 10 8 0 12 -4 9 -10z m-2012 -26 c23 -7 21 -21 -4
-29 -15 -5 -25 -2 -31 9 -5 10 -19 22 -31 27 -17 7 -14 8 13 3 19 -3 43 -8 53
-10z m807 -284 c0 -224 3 -280 13 -280 7 0 22 -7 33 -16 18 -15 18 -15 -3 -9
-32 9 -29 -4 11 -47 34 -37 34 -38 13 -44 -12 -3 -31 -17 -42 -32 -19 -26 -20
-45 -22 -639 l-3 -613 95 0 95 0 1 -292 c0 -161 0 -328 -1 -371 -1 -52 3 -84
12 -94 10 -13 10 -17 0 -20 -7 -3 -12 -22 -12 -49 l0 -44 -325 0 -325 0 -2
998 c-1 548 0 1030 1 1070 2 46 -1 78 -9 87 -9 10 -9 15 -1 15 6 0 11 11 11
25 0 16 -6 25 -15 25 -8 0 -15 -7 -15 -15 0 -16 -27 -20 -49 -6 -16 11 -7 16
42 25 l37 7 0 299 0 300 230 0 230 0 0 -280z m750 190 l0 -90 36 -15 c41 -17
37 -37 -6 -28 -25 5 -30 2 -30 -15 0 -11 8 -22 20 -25 11 -3 20 -13 20 -22 0
-12 -6 -16 -20 -12 -17 4 -20 0 -20 -24 0 -22 5 -29 19 -29 11 0 22 -4 25 -9
3 -4 -6 -6 -19 -3 l-25 4 0 -451 c0 -394 2 -451 15 -451 8 0 15 -7 15 -15 0
-8 -7 -15 -15 -15 -13 0 -15 -44 -15 -335 l0 -335 95 0 95 0 1 -207 c1 -348
-2 -657 -5 -661 -2 -1 -137 -3 -300 -2 -216 0 -295 -3 -294 -11 5 -20 -20 -21
-30 -2 -14 26 -16 69 -14 496 l2 387 100 0 100 0 0 780 c0 675 -2 780 -15 780
-8 0 -19 9 -25 20 -11 20 -5 25 28 21 15 -2 16 11 0 27 -9 9 -9 12 0 12 9 0
12 42 12 160 l0 160 125 0 125 0 0 -90z m-1630 65 c30 -15 32 -38 4 -49 -7 -3
-11 -12 -8 -21 4 -10 0 -15 -10 -15 -9 0 -16 7 -16 15 0 7 -7 18 -16 23 -11 6
-13 11 -5 16 6 4 11 16 11 27 0 23 3 23 40 4z m1917 -31 c-3 -4 -13 -4 -22 0
-13 5 -14 10 -4 28 l12 23 10 -23 c6 -12 7 -25 4 -28z m-1712 16 c3 -5 -1 -10
-9 -10 -9 0 -16 5 -16 10 0 6 4 10 9 10 6 0 13 -4 16 -10z m-48 -26 c-3 -3
-12 -4 -19 -1 -8 3 -5 6 6 6 11 1 17 -2 13 -5z m1828 -24 c3 -5 -1 -10 -10
-10 -9 0 -13 5 -10 10 3 6 8 10 10 10 2 0 7 -4 10 -10z m-2195 -30 c9 -16 8
-20 -5 -20 -8 0 -15 9 -15 20 0 11 2 20 5 20 2 0 9 -9 15 -20z m2133 -29 c39
-22 54 -36 46 -41 -7 -5 -19 -6 -28 -3 -13 4 -13 3 -2 -5 24 -17 1 -32 -50
-32 -51 0 -89 13 -89 30 0 6 6 10 13 10 15 0 42 48 38 69 -3 16 -2 15 72 -28z
m907 33 c0 -2 -9 -8 -19 -13 -14 -8 -20 -7 -24 2 -3 7 5 13 19 13 13 1 24 0
24 -2z m-2471 -7 c-2 -1 -12 -9 -21 -16 -15 -12 -18 -11 -18 3 0 10 8 16 22
16 12 0 19 -1 17 -3z m1606 -25 c-7 -8 -45 10 -40 19 4 5 14 3 25 -3 11 -7 17
-14 15 -16z m775 13 c-10 -12 -10 -15 4 -15 9 0 16 -5 16 -11 0 -5 -5 -7 -10
-4 -6 3 -17 0 -25 -8 -8 -9 -24 -13 -35 -10 -21 6 -18 23 5 23 8 0 19 9 25 20
6 11 16 20 22 20 7 0 6 -5 -2 -15z m-687 -15 c16 -19 16 -20 -13 -20 -31 0
-43 23 -17 33 6 3 12 6 12 6 0 1 8 -8 18 -19z m37 0 c0 -5 -7 -7 -15 -4 -8 4
-15 8 -15 10 0 2 7 4 15 4 8 0 15 -4 15 -10z m-290 -10 c0 -5 -5 -10 -11 -10
-5 0 -7 5 -4 10 3 6 8 10 11 10 2 0 4 -4 4 -10z m-1524 -32 c-10 -6 -20 -7
-24 -3 -9 8 20 25 31 18 5 -3 2 -10 -7 -15z m1784 -8 c0 -5 -9 -10 -19 -10
-23 0 -36 -16 -21 -25 6 -4 8 -11 5 -16 -8 -12 -45 -12 -45 1 0 6 5 10 10 10
6 0 10 8 10 18 0 10 3 22 7 25 10 11 53 8 53 -3z m40 0 c0 -5 -5 -10 -11 -10
-5 0 -7 5 -4 10 3 6 8 10 11 10 2 0 4 -4 4 -10z m-1769 -53 c-8 -23 -61 -38
-61 -18 0 21 32 49 50 44 14 -4 17 -10 11 -26z m2474 -6 c-3 -6 -14 -11 -23
-11 -15 1 -15 2 2 15 21 16 32 13 21 -4z m-1665 -21 c0 -5 -4 -10 -10 -10 -5
0 -10 5 -10 10 0 6 5 10 10 10 6 0 10 -4 10 -10z m2020 -25 c0 -8 -7 -15 -15
-15 -16 0 -20 12 -8 23 11 12 23 8 23 -8z m-1175 -34 c7 -12 -28 -23 -49 -15
-9 3 -13 10 -10 15 7 12 51 12 59 0z m100 -11 c3 -5 -3 -10 -14 -10 -12 0 -21
5 -21 10 0 6 6 10 14 10 8 0 18 -4 21 -10z m-345 -50 c0 -5 -8 -10 -17 -10
-15 0 -16 2 -3 10 19 12 20 12 20 0z m-480 -14 c0 -3 -4 -8 -10 -11 -5 -3 -10
-1 -10 4 0 6 5 11 10 11 6 0 10 -2 10 -4z m-1089 -36 c27 -15 24 -33 -11 -58
-34 -26 -52 -28 -44 -7 4 8 12 15 19 15 22 0 27 17 10 33 -27 27 -12 37 26 17z
m2829 -40 c0 -5 -4 -10 -10 -10 -5 0 -10 5 -10 10 0 6 5 10 10 10 6 0 10 -4
10 -10z m-1630 -30 c0 -5 -9 -10 -20 -10 -11 0 -20 5 -20 10 0 6 9 10 20 10
11 0 20 -4 20 -10z m-375 -61 c10 -14 1 -21 -19 -13 -9 3 -13 10 -10 15 7 12
21 11 29 -2z m-955 -9 c0 -5 -2 -10 -4 -10 -3 0 -8 5 -11 10 -3 6 -1 10 4 10
6 0 11 -4 11 -10z m1625 -20 c3 -5 1 -10 -4 -10 -6 0 -11 5 -11 10 0 6 2 10 4
10 3 0 8 -4 11 -10z m50 -10 c3 -5 1 -10 -4 -10 -6 0 -11 5 -11 10 0 6 2 10 4
10 3 0 8 -4 11 -10z m1040 0 c3 -5 1 -10 -4 -10 -6 0 -11 5 -11 10 0 6 2 10 4
10 3 0 8 -4 11 -10z m-48 -36 c-3 -3 -12 -4 -19 -1 -8 3 -5 6 6 6 11 1 17 -2
13 -5z m-2602 -23 c7 -12 -12 -24 -25 -16 -11 7 -4 25 10 25 5 0 11 -4 15 -9z
m1215 -1 c0 -5 -2 -10 -4 -10 -3 0 -8 5 -11 10 -3 6 -1 10 4 10 6 0 11 -4 11
-10z m416 -17 c-10 -10 -19 5 -10 18 6 11 8 11 12 0 2 -7 1 -15 -2 -18z m66
-13 c6 0 6 -6 -2 -15 -18 -22 -40 -18 -40 6 0 15 4 19 16 15 9 -3 20 -6 26 -6z
m-1563 -46 c-8 -10 -3 -13 28 -12 31 1 45 -5 80 -38 41 -38 42 -40 23 -52 -17
-10 -21 -10 -26 3 -4 10 -14 13 -33 9 -39 -9 -81 -28 -81 -36 0 -5 -18 -8 -40
-8 -31 0 -38 -3 -34 -15 5 -11 -1 -15 -25 -15 -40 0 -51 24 -22 49 11 10 18
21 14 24 -3 4 3 9 13 13 10 3 32 12 47 21 17 9 40 13 57 10 20 -5 30 -2 34 10
4 11 2 14 -9 10 -8 -4 -26 0 -40 7 -20 11 -22 15 -11 19 10 4 13 13 9 24 -6
16 -5 16 10 4 13 -10 14 -17 6 -27z m-439 12 c0 -16 -19 -25 -38 -18 -9 3 -10
8 -1 18 15 18 39 18 39 0z m1340 -2 c0 -2 -9 -4 -21 -4 -11 0 -18 4 -14 10 5
8 35 3 35 -6z m-770 -24 c0 -5 -4 -10 -10 -10 -5 0 -10 5 -10 10 0 6 5 10 10
10 6 0 10 -4 10 -10z m2330 -20 c0 -5 -7 -10 -15 -10 -8 0 -15 5 -15 10 0 6 7
10 15 10 8 0 15 -4 15 -10z m-730 -25 c0 -19 -48 -31 -63 -16 -9 9 -8 14 3 21
23 15 60 12 60 -5z m-2178 -40 c0 -5 -5 -11 -11 -13 -6 -2 -11 4 -11 13 0 9 5
15 11 13 6 -2 11 -8 11 -13z m302 0 c-4 -8 -10 -15 -15 -15 -5 0 -9 7 -9 15 0
8 7 15 15 15 9 0 12 -6 9 -15z m1781 5 c-3 -5 -10 -10 -16 -10 -5 0 -9 5 -9
10 0 6 7 10 16 10 8 0 12 -4 9 -10z m205 -5 c13 -16 3 -20 -24 -9 -9 3 -13 10
-10 15 8 13 20 11 34 -6z m620 -5 c13 -8 13 -10 -2 -10 -9 0 -20 5 -23 10 -8
13 5 13 25 0z m-2620 -35 c0 -8 -9 -15 -19 -15 -24 0 -36 16 -19 23 24 10 38
7 38 -8z m-156 -11 c20 -8 11 -24 -14 -24 -13 0 -17 5 -14 15 7 17 7 17 28 9z
m2741 -45 c12 -19 -3 -22 -27 -5 l-22 16 21 0 c12 0 25 -5 28 -11z m60 -8 c7
-12 -12 -24 -25 -16 -11 7 -4 25 10 25 5 0 11 -4 15 -9z m-95 -51 c12 -8 9
-10 -12 -10 -16 0 -28 5 -28 10 0 13 20 13 40 0z m-1593 -42 c-3 -8 -6 -5 -6
6 -1 11 2 17 5 13 3 -3 4 -12 1 -19z m-857 -28 c0 -5 -2 -10 -4 -10 -3 0 -8 5
-11 10 -3 6 -1 10 4 10 6 0 11 -4 11 -10z m874 -19 c3 -5 -1 -12 -10 -15 -20
-8 -29 -1 -19 13 8 13 22 14 29 2z m1675 -7 c2 -2 0 -11 -4 -21 -14 -32 -1
-69 15 -43 5 8 12 12 15 8 12 -12 -19 -47 -47 -53 -37 -8 -48 0 -48 36 0 21 6
32 21 37 21 8 21 9 -5 25 -31 21 -40 21 -32 2 3 -9 0 -15 -9 -15 -18 0 -20 26
-2 33 11 5 88 -2 96 -9z m-2892 -79 c-13 -27 -47 -34 -47 -10 0 8 7 15 15 15
8 0 15 5 15 10 0 6 6 10 14 10 11 0 12 -5 3 -25z m1903 -9 c0 -3 -4 -8 -10
-11 -5 -3 -10 -1 -10 4 0 6 5 11 10 11 6 0 10 -2 10 -4z m70 -17 c0 -5 -4 -9
-10 -9 -5 0 -10 7 -10 16 0 8 5 12 10 9 6 -3 10 -10 10 -16z m-25 -79 c3 -6 0
-10 -7 -10 -15 0 -38 19 -38 32 0 10 36 -8 45 -22z m-1865 -10 c0 -5 -7 -10
-15 -10 -8 0 -15 5 -15 10 0 6 7 10 15 10 8 0 15 -4 15 -10z m101 -6 c17 -8
28 -18 25 -21 -3 -3 -20 4 -38 16 -39 24 -30 28 13 5z m2719 2 c0 -2 -7 -6
-15 -10 -8 -3 -15 -1 -15 4 0 6 7 10 15 10 8 0 15 -2 15 -4z m-710 -16 c0 -5
-2 -10 -4 -10 -3 0 -8 5 -11 10 -3 6 -1 10 4 10 6 0 11 -4 11 -10z m-290 -20
c0 -5 -2 -10 -4 -10 -3 0 -8 5 -11 10 -3 6 -1 10 4 10 6 0 11 -4 11 -10z
m-513 -14 c10 3 5 -3 -12 -15 -32 -23 -68 -30 -48 -10 6 6 9 18 6 26 -5 13 -2
13 15 4 11 -6 29 -8 39 -5z m823 7 c0 -10 -42 -53 -52 -53 -13 0 -9 22 9 42
16 18 43 25 43 11z m900 -83 c18 -11 13 -16 -27 -24 -34 -8 -56 10 -32 25 18
11 40 11 59 -1z m-875 -30 c-3 -5 -10 -10 -16 -10 -5 0 -9 5 -9 10 0 6 7 10
16 10 8 0 12 -4 9 -10z m898 -76 c10 -10 -17 -44 -35 -44 -23 0 -23 9 0 31 19
20 26 22 35 13z m60 -24 c3 -13 -1 -21 -14 -25 -26 -9 -38 1 -32 25 7 26 39
26 46 0z m-1736 -16 c-3 -3 -12 -4 -19 -1 -8 3 -5 6 6 6 11 1 17 -2 13 -5z
m1683 -38 c0 -8 -4 -18 -10 -21 -16 -10 -12 -25 7 -25 9 0 13 -3 10 -6 -10
-10 -79 26 -74 39 2 7 11 11 20 11 9 -1 14 2 11 7 -3 5 4 9 15 9 12 0 21 -6
21 -14z m160 -5 c0 -6 -4 -13 -10 -16 -5 -3 -10 1 -10 9 0 9 5 16 10 16 6 0
10 -4 10 -9z m66 -51 c8 0 14 -5 14 -10 0 -13 -70 -2 -85 13 -7 6 1 8 24 3 18
-3 40 -6 47 -6z m-263 -9 c32 -1 36 -17 6 -26 -17 -6 -20 -12 -15 -37 5 -24 3
-28 -7 -20 -6 6 -25 12 -42 14 -22 2 -31 9 -33 24 -4 26 22 53 45 49 10 -2 30
-4 46 -4z m-1013 -171 c-12 -22 -25 -26 -35 -10 -5 8 19 24 43 29 1 1 -2 -8
-8 -19z m1044 -3 c12 -20 8 -25 -32 -36 -24 -7 -30 -6 -26 4 3 7 -3 16 -13 20
-16 6 -14 9 12 21 35 15 45 14 59 -9z m76 -33 c0 -19 -4 -33 -8 -30 -8 5 -4
66 4 66 2 0 4 -16 4 -36z m127 10 c-9 -9 -28 6 -21 18 4 6 10 6 17 -1 6 -6 8
-13 4 -17z m-327 -14 c0 -5 -5 -10 -11 -10 -5 0 -7 5 -4 10 3 6 8 10 11 10 2
0 4 -4 4 -10z m230 -228 c15 -34 12 -40 -6 -13 -12 16 -18 50 -20 115 l-3 91
9 -85 c6 -47 14 -95 20 -108z m-240 148 c0 -5 9 -10 20 -10 11 0 20 -4 20 -10
0 -14 -33 -13 -48 2 -15 15 -16 28 -2 28 6 0 10 -4 10 -10z m-180 -14 c0 -3
-4 -8 -10 -11 -5 -3 -10 -1 -10 4 0 6 5 11 10 11 6 0 10 -2 10 -4z m230 -44
c0 -12 -8 -18 -25 -20 -29 -2 -33 12 -7 27 25 15 32 13 32 -7z m-190 -103 c0
-6 -4 -7 -10 -4 -5 3 -10 11 -10 16 0 6 5 7 10 4 6 -3 10 -11 10 -16z m410
-70 c0 -11 -4 -17 -10 -14 -5 3 -10 13 -10 21 0 8 5 14 10 14 6 0 10 -9 10
-21z m-255 -339 c3 -5 1 -10 -4 -10 -6 0 -11 5 -11 10 0 6 2 10 4 10 3 0 8 -4
11 -10z m-176 -166 c3 -3 -1 -10 -7 -16 -9 -9 -18 -8 -39 1 -21 10 -24 14 -12
21 12 8 46 5 58 -6z m-1509 -18 c0 -11 -19 -15 -25 -6 -3 5 1 10 9 10 9 0 16
-2 16 -4z m690 -26 c0 -5 -4 -10 -10 -10 -5 0 -10 5 -10 10 0 6 5 10 10 10 6
0 10 -4 10 -10z m215 -99 c3 -5 1 -12 -5 -16 -5 -3 -10 1 -10 9 0 18 6 21 15
7z m-1064 -26 c-1 -15 -24 -12 -29 3 -3 9 2 13 12 10 10 -1 17 -7 17 -13z
m854 4 c10 -15 -1 -23 -20 -15 -9 3 -13 10 -10 16 8 13 22 13 30 -1z m-601
-15 c24 -9 9 -24 -24 -24 -29 0 -45 12 -33 24 8 8 37 8 57 0z m486 -14 c0 -5
-4 -10 -9 -10 -6 0 -13 5 -16 10 -3 6 1 10 9 10 9 0 16 -4 16 -10z m417 -15
c-14 -10 -14 -12 1 -22 13 -8 9 -9 -18 -5 -32 4 -49 16 -50 34 0 9 31 15 59 9
21 -3 22 -5 8 -16z m-986 0 c-1 -15 -24 -12 -29 3 -3 9 2 13 12 10 10 -1 17
-7 17 -13z m1439 -11 c0 -7 -5 -16 -11 -20 -14 -8 -44 21 -35 34 8 14 46 3 46
-14z m-1252 -30 c48 -13 21 -28 -76 -40 -44 -5 -52 -3 -52 10 0 10 9 16 23 16
12 0 29 5 37 10 17 11 36 12 68 4z m897 -30 c0 -15 -7 -19 -35 -17 -19 1 -27
-1 -17 -3 9 -3 17 -10 17 -15 0 -5 10 -9 23 -9 38 0 67 -12 67 -26 0 -8 -9
-13 -22 -13 -13 1 -50 -2 -84 -6 -49 -6 -63 -4 -76 9 -9 9 -26 16 -39 16 l-22
0 24 19 c13 10 33 21 44 24 13 3 8 5 -13 6 -22 1 -32 5 -29 14 2 8 25 12 65
13 34 0 65 4 69 7 12 12 28 1 28 -19z m-325 -6 c15 -9 22 -10 31 -1 14 14 72
-4 66 -21 -2 -6 0 -23 4 -38 7 -27 6 -28 -26 -28 -19 0 -37 5 -40 10 -3 6 -14
10 -23 10 -26 0 -77 61 -60 71 18 12 25 11 48 -3z m743 -32 c22 -17 22 -22 -7
-41 -41 -27 -87 10 -54 43 16 16 39 15 61 -2z m-753 -56 c0 -5 -4 -10 -10 -10
-5 0 -10 5 -10 10 0 6 5 10 10 10 6 0 10 -4 10 -10z"/>
<path d="M200 3430 c6 -11 15 -18 21 -15 13 9 11 13 -12 25 -19 11 -20 10 -9
-10z"/>
<path d="M1172 2541 c-11 -7 -11 -9 2 -14 10 -4 16 -1 16 8 0 17 -1 17 -18 6z"/>
<path d="M1145 2500 c3 -5 8 -10 11 -10 2 0 4 5 4 10 0 6 -5 10 -11 10 -5 0
-7 -4 -4 -10z"/>
<path d="M3436 1458 c-45 -17 -109 -55 -99 -61 4 -2 24 -8 43 -12 19 -4 54
-19 78 -32 l42 -25 0 71 c0 78 -3 81 -64 59z"/>
<path d="M3463 108 c-51 -105 -51 -108 -4 -108 l41 0 0 85 c0 47 -1 85 -3 85
-2 0 -17 -28 -34 -62z"/>
</g>
</svg>
